<?xml version="1.0" standalone="no"?>
<!DOCTYPE svg PUBLIC "-//W3C//DTD SVG 20010904//EN"
 "http://www.w3.org/TR/2001/REC-SVG-20010904/DTD/svg10.dtd">
<svg version="1.0" xmlns="http://www.w3.org/2000/svg"
 width="960.000000pt" height="960.000000pt" viewBox="0 0 960.000000 960.000000"
 preserveAspectRatio="xMidYMid meet">
<metadata>
Created by potrace 1.14, written by Peter Selinger 2001-2017
</metadata>
<g transform="translate(0.000000,960.000000) scale(0.100000,-0.100000)"
fill="#000000" stroke="none">
<path d="M2436 9533 c154 -149 260 -231 191 -147 -33 41 -67 113 -60 131 3 8
-8 29 -28 49 -31 32 -36 34 -103 34 l-70 0 70 -67z"/>
<path d="M5680 9574 c-19 -14 -37 -31 -39 -37 -2 -7 -58 -67 -125 -135 -155
-157 -179 -184 -183 -212 -2 -13 -6 -26 -8 -29 -3 -2 -55 -3 -116 -2 -86 2
-127 8 -182 26 -54 18 -75 22 -90 13 -11 -5 -22 -6 -26 -1 -9 12 -68 38 -141
62 -70 23 -241 47 -383 55 -104 6 -149 17 -230 57 -64 31 -99 35 -141 19 -33
-12 -33 -35 -1 -82 14 -20 25 -42 25 -47 0 -18 34 -85 57 -114 13 -16 23 -32
23 -37 0 -4 25 -34 55 -65 30 -32 52 -61 49 -66 -3 -5 2 -9 10 -9 9 0 15 -3
15 -7 -3 -21 2 -33 14 -33 20 0 97 -95 97 -119 0 -11 12 -28 26 -38 14 -10 44
-35 67 -55 23 -21 47 -38 54 -38 6 0 13 -4 15 -8 2 -4 36 -34 76 -65 74 -60
90 -90 51 -102 -28 -9 -45 -56 -24 -67 21 -12 19 -40 -7 -98 -20 -43 -30 -53
-79 -75 -31 -14 -66 -25 -78 -25 -13 0 -23 -8 -26 -23 -9 -33 -42 -52 -62 -35
-29 24 -6 -40 27 -76 17 -17 30 -34 30 -38 0 -3 14 -9 30 -13 36 -8 36 -11 5
-49 -20 -25 -26 -28 -40 -16 -13 11 -20 11 -40 0 -20 -11 -32 -10 -77 6 -43
16 -57 26 -74 59 -34 66 -49 53 -52 -47 -1 -49 1 -88 5 -88 12 0 15 -168 3
-190 -14 -27 -28 -25 -42 5 -6 14 -17 25 -25 25 -20 0 -6 -93 24 -151 12 -26
23 -52 23 -59 0 -42 56 -90 105 -90 16 0 30 -10 42 -30 9 -16 23 -30 30 -30 7
0 13 -5 13 -11 0 -5 4 -8 8 -5 12 7 69 -41 59 -50 -4 -4 -14 1 -22 12 -20 26
-19 9 1 -22 16 -23 16 -26 -2 -39 -27 -21 -46 -18 -85 10 -29 23 -34 24 -37 9
-2 -9 5 -29 17 -45 12 -15 21 -33 21 -39 0 -5 16 -20 35 -32 19 -13 38 -32 41
-43 4 -11 25 -37 48 -58 22 -21 33 -35 23 -31 -10 3 -17 1 -17 -5 0 -6 5 -11
10 -11 6 0 10 -5 10 -12 0 -6 9 -21 20 -33 12 -12 20 -38 22 -65 3 -43 2 -45
-25 -48 -17 -2 -37 4 -48 14 -15 13 -19 14 -19 3 1 -19 38 -45 77 -53 30 -7
32 -10 26 -39 -3 -18 -16 -44 -27 -58 -12 -14 -32 -45 -46 -68 -14 -23 -40
-61 -57 -83 -32 -39 -42 -68 -24 -68 5 0 20 15 32 33 13 17 27 34 31 35 4 2 8
8 8 14 0 6 12 27 28 46 15 20 36 52 47 72 11 21 35 62 52 91 20 33 33 68 33
89 0 27 3 32 11 20 8 -12 10 -12 8 5 -4 29 12 89 25 97 8 5 6 16 -7 35 -10 15
-25 42 -32 60 -8 17 -19 34 -25 38 -9 6 13 44 51 88 9 10 29 41 44 70 15 29
36 61 45 72 10 11 21 31 25 45 11 36 20 39 93 23 59 -12 75 -12 146 3 56 13
89 26 111 45 17 15 44 31 61 35 25 6 27 5 13 -7 -20 -16 -35 -59 -21 -59 9 0
42 59 42 74 0 8 76 86 85 86 3 0 25 13 48 28 52 36 107 49 107 26 0 -9 6 -14
13 -11 6 2 11 10 9 16 -3 15 25 14 31 -2 3 -7 3 -26 1 -42 -2 -17 7 -53 19
-82 19 -44 26 -52 52 -55 21 -2 31 -10 36 -28 4 -14 7 -18 8 -8 1 11 14 18 41
23 31 5 40 11 40 27 0 17 3 18 15 8 13 -11 13 -14 0 -27 -29 -29 -8 -70 27
-52 14 7 20 6 24 -6 3 -8 17 -15 31 -15 13 0 31 -7 40 -15 8 -8 19 -13 24 -10
5 4 9 1 9 -5 0 -6 8 -9 18 -6 10 3 29 -5 46 -20 l29 -25 -23 -16 c-13 -9 -30
-24 -38 -34 -9 -10 -19 -14 -22 -9 -3 5 -18 -22 -33 -60 -24 -63 -27 -82 -27
-200 0 -72 4 -138 9 -148 4 -9 28 -57 53 -107 26 -52 53 -94 66 -101 12 -6 30
-18 39 -26 31 -27 81 -48 115 -49 32 -1 115 -27 91 -28 -7 -1 -13 -8 -13 -16
0 -9 6 -15 13 -13 29 7 108 -35 144 -76 32 -36 43 -43 68 -39 17 2 51 -2 77
-10 31 -10 50 -11 56 -5 14 14 122 0 119 -15 -1 -7 5 -10 13 -8 31 9 97 8 142
-2 52 -11 63 -30 52 -86 -10 -50 -95 -126 -152 -137 -18 -3 -35 -10 -38 -15
-3 -5 -13 -9 -23 -9 -10 0 -24 -6 -30 -14 -7 -8 -24 -17 -38 -21 -33 -8 -83
-43 -83 -57 0 -6 9 -8 20 -5 11 3 18 1 14 -4 -3 -5 -11 -9 -19 -9 -33 0 -33
-71 0 -105 l26 -25 29 22 c17 12 30 28 30 36 0 16 -37 52 -53 52 -6 0 0 11 13
25 18 19 26 22 37 14 10 -9 13 -7 13 10 0 11 5 21 10 21 6 0 10 7 10 15 0 8 4
15 9 15 5 0 7 -15 4 -34 -4 -28 1 -37 26 -57 23 -19 32 -37 40 -82 10 -56 48
-120 91 -154 13 -11 13 -12 -2 -13 -9 0 -18 -5 -20 -11 -2 -7 -12 -7 -31 2
-29 13 -51 4 -27 -11 13 -8 79 -15 103 -11 5 1 6 -3 2 -8 -5 -10 11 -16 59
-23 11 -2 21 -8 23 -14 2 -7 -6 -10 -23 -6 -19 3 -25 1 -20 -7 4 -6 13 -11 19
-11 7 0 33 -11 59 -25 26 -14 55 -25 65 -25 21 0 119 -39 154 -61 13 -8 40
-21 59 -29 19 -8 39 -20 43 -27 4 -7 15 -13 22 -13 22 0 18 -12 -13 -42 -39
-36 -98 -68 -127 -68 -29 0 -42 17 -18 23 15 4 14 5 -3 6 -12 0 -27 -6 -34
-14 -9 -11 -47 -14 -194 -14 -182 0 -241 -7 -200 -22 10 -3 82 -7 159 -8 77
-1 143 -5 147 -9 4 -4 -15 -5 -42 -4 -29 2 -50 0 -50 -6 0 -6 -9 -8 -20 -5
-17 5 -20 0 -20 -26 0 -18 5 -31 13 -31 6 -1 -3 -13 -20 -29 -40 -33 -42 -45
-7 -37 34 9 64 -1 57 -19 -3 -8 -9 -12 -14 -9 -5 3 -9 -1 -9 -8 0 -20 -125
-97 -160 -99 -8 0 -35 -14 -60 -30 -25 -16 -56 -34 -70 -40 -14 -6 -38 -17
-55 -25 -28 -12 -116 -29 -131 -24 -4 1 -10 -4 -15 -12 -6 -9 -27 -12 -74 -10
-39 1 -65 -2 -65 -8 0 -5 11 -10 24 -10 13 0 30 -7 37 -17 13 -15 9 -16 -43
-10 -55 5 -57 5 -48 -14 6 -11 22 -19 38 -20 16 -1 -1 -8 -42 -18 -37 -9 -73
-24 -80 -32 -12 -16 -91 -39 -134 -39 -15 0 -33 -5 -40 -12 -16 -16 -95 -13
-162 7 -30 9 -66 18 -80 21 -24 5 -23 5 4 -10 15 -9 36 -16 45 -16 9 -1 27 -7
41 -15 22 -12 23 -14 8 -20 -10 -4 -31 -2 -48 3 -16 6 -32 7 -34 3 -3 -4 -32
-7 -66 -6 -45 2 -60 -1 -60 -11 0 -27 -18 -14 -22 16 -4 24 -1 30 13 30 9 0
19 -5 21 -12 2 -6 10 -8 16 -4 16 10 15 27 -1 21 -6 -3 -18 4 -25 16 -13 20
-12 21 16 14 41 -9 47 8 11 29 -32 19 -37 37 -14 56 13 11 75 114 75 125 0 16
-41 -19 -46 -40 -9 -34 -24 -31 -25 5 -1 17 -2 36 -3 42 -1 7 11 19 27 26 15
7 27 17 27 23 0 5 6 9 14 9 7 0 19 7 26 15 8 9 9 15 2 15 -6 0 -13 -4 -17 -10
-3 -5 -12 -7 -20 -4 -8 3 -22 -1 -30 -10 -9 -9 -20 -16 -25 -16 -11 0 -21 30
-14 41 3 5 -1 9 -9 9 -11 0 -16 -17 -20 -67 -9 -123 -9 -183 2 -183 6 0 11 -4
11 -10 0 -5 -7 -10 -15 -10 -12 0 -15 19 -16 108 -1 59 -2 112 -4 117 -1 6 -3
20 -3 33 -2 17 -8 22 -32 22 -27 0 -30 -3 -30 -30 0 -21 -4 -28 -14 -24 -10 4
-16 -2 -18 -18 -2 -13 -9 -22 -16 -21 -6 2 -12 -6 -12 -17 0 -29 15 -24 39 13
11 17 21 26 21 19 0 -13 -44 -85 -70 -114 -9 -9 -22 -45 -29 -80 -8 -35 -17
-70 -22 -79 -4 -8 -4 -21 1 -28 11 -18 30 17 30 56 0 18 11 41 30 61 16 18 37
55 46 83 9 27 21 49 27 49 13 0 1 -169 -15 -187 -8 -10 -8 -17 0 -25 9 -9 12
-8 12 5 0 9 5 17 10 17 6 0 10 -13 10 -30 0 -21 -4 -28 -14 -24 -8 3 -16 -4
-19 -17 -8 -29 -2 -35 18 -19 9 7 18 10 22 7 8 -9 -16 -37 -31 -37 -18 0 -66
-24 -66 -32 0 -5 4 -8 9 -8 5 0 7 -10 3 -22 -5 -21 -2 -20 35 10 22 17 43 29
47 25 3 -3 6 -1 6 6 0 7 7 10 18 7 11 -4 27 2 38 13 27 25 141 26 136 1 -2 -8
-4 -23 -5 -32 -2 -25 -17 -23 -17 2 0 16 -7 20 -33 20 -28 0 -33 -4 -35 -26
-1 -15 -7 -32 -12 -39 -19 -22 0 -45 36 -45 28 0 34 -4 34 -22 0 -12 -8 -30
-17 -41 -17 -19 -17 -20 0 -14 11 4 16 3 12 -3 -3 -6 -13 -10 -21 -10 -10 0
-13 -7 -9 -23 8 -31 -17 -54 -36 -34 -8 7 -23 16 -33 20 -19 7 -19 7 -3 -11
22 -24 21 -35 -2 -56 -12 -11 -21 -14 -26 -7 -4 7 -16 3 -34 -10 -27 -20 -28
-23 -18 -60 9 -37 7 -44 -26 -92 -19 -29 -42 -67 -51 -85 -21 -42 -29 -41 -20
3 7 37 -5 46 -26 20 -7 -8 -18 -15 -25 -15 -6 0 -22 -9 -35 -20 -13 -11 -27
-20 -32 -20 -4 0 -8 -6 -8 -14 0 -7 -10 -20 -22 -28 -19 -13 -22 -24 -22 -69
1 -42 -4 -57 -20 -71 -12 -10 -15 -17 -8 -18 17 0 15 -15 -4 -34 -23 -23 -33
-20 -28 9 2 14 2 25 0 25 -14 0 -106 -53 -106 -61 0 -6 9 -4 23 3 51 28 60 15
25 -34 -11 -17 -41 -39 -65 -50 -48 -21 -57 -32 -18 -22 31 8 31 2 3 -39 -47
-66 -71 -73 -87 -26 -16 47 -14 61 19 124 17 31 30 65 30 75 0 10 3 20 8 22 4
1 18 24 31 50 24 48 74 88 110 88 24 0 73 74 59 88 -7 7 -5 18 7 35 9 15 13
32 9 38 -4 8 -3 9 4 5 7 -4 12 -23 12 -42 0 -36 8 -42 28 -22 20 20 14 44 -18
68 -16 13 -30 31 -30 40 0 31 -37 52 -102 60 -67 7 -121 26 -169 61 -23 16
-33 19 -42 10 -8 -8 -6 -11 10 -11 11 0 23 -7 27 -15 3 -8 12 -15 21 -15 8 0
15 -4 15 -9 0 -8 153 -61 178 -61 18 0 15 -18 -5 -28 -10 -5 -43 -12 -73 -16
-66 -8 -94 -21 -67 -32 9 -3 17 -12 17 -20 0 -8 7 -14 15 -14 8 0 12 6 9 14
-4 11 13 20 68 36 40 12 78 25 83 28 6 3 5 -1 -2 -9 -6 -8 -15 -30 -20 -49 -8
-29 -15 -36 -43 -41 -19 -4 -36 -12 -38 -17 -2 -6 -20 -8 -42 -5 -33 5 -42 1
-63 -21 -13 -14 -29 -26 -34 -26 -14 0 -23 -35 -23 -95 -1 -60 -21 -148 -44
-193 -9 -17 -12 -32 -7 -32 6 0 15 9 21 21 7 11 14 18 17 16 7 -8 -17 -79 -32
-97 -14 -16 -75 -133 -75 -144 0 -15 18 -4 30 19 19 36 26 31 22 -15 -2 -22
-9 -40 -15 -40 -6 0 -57 -47 -113 -105 -94 -96 -120 -115 -136 -99 -9 9 3 44
16 44 6 0 20 12 31 27 11 15 37 45 58 68 35 38 54 81 24 57 -7 -6 -23 -9 -35
-5 -15 4 -22 1 -22 -9 0 -17 -69 -53 -119 -62 -40 -7 -121 -87 -121 -118 0
-11 -12 -33 -27 -48 -123 -126 -140 -140 -173 -147 -36 -6 -109 -48 -123 -70
-4 -7 -14 -13 -21 -13 -7 0 -23 -19 -36 -42 -13 -24 -37 -61 -55 -83 -35 -44
-75 -117 -75 -137 0 -7 -11 -34 -25 -60 -14 -26 -25 -55 -25 -65 0 -10 -8 -23
-18 -30 -23 -14 -76 -119 -67 -133 3 -5 1 -27 -4 -47 -5 -21 -12 -62 -15 -91
-7 -66 -16 -104 -28 -119 -25 -32 -113 -322 -105 -347 2 -5 19 34 38 88 l34
98 5 -98 c3 -63 1 -106 -6 -119 -6 -11 -14 -42 -18 -70 -6 -41 -5 -48 5 -37 7
6 17 12 22 12 14 0 0 -130 -18 -173 -13 -32 -17 -66 -14 -138 2 -44 -93 -235
-123 -247 -4 -2 -8 -12 -8 -21 0 -10 -14 -35 -30 -57 -17 -21 -41 -58 -54 -83
-52 -102 -99 -187 -127 -228 -16 -24 -29 -47 -29 -51 0 -4 -14 -27 -30 -52
-51 -76 -195 -384 -207 -440 -3 -17 -10 -33 -14 -36 -5 -3 -9 -15 -9 -27 0
-12 -14 -49 -30 -81 -17 -32 -30 -65 -30 -72 0 -12 525 -14 3300 -14 l3300 0
0 2520 c0 2233 -2 2520 -15 2520 -10 0 -15 10 -15 34 0 19 -3 43 -6 53 -6 15
-4 16 7 6 7 -7 17 -13 21 -13 4 0 8 187 8 415 l0 415 -32 44 c-18 25 -40 47
-48 50 -25 9 -50 60 -56 113 -8 71 -44 203 -62 232 -9 14 -29 37 -44 51 -27
23 -28 29 -28 112 0 113 -19 118 -22 6 -1 -46 -3 -64 -5 -40 -4 39 -6 42 -34
42 -27 0 -29 -2 -29 -40 0 -33 -3 -40 -20 -40 -17 0 -20 -7 -20 -40 l0 -40
-91 0 -92 0 5 -52 c5 -44 2 -54 -15 -69 -19 -15 -20 -20 -9 -58 8 -24 19 -41
27 -41 8 0 15 -9 15 -20 0 -11 5 -20 10 -20 6 0 10 -16 10 -35 0 -25 7 -43 23
-58 13 -12 27 -29 30 -37 3 -8 6 -10 6 -3 2 22 50 -11 62 -42 l10 -30 22 48
c22 51 24 52 59 38 21 -8 23 -14 20 -55 -3 -31 -9 -46 -18 -46 -16 0 -19 -16
-4 -25 6 -3 10 -1 10 6 0 7 18 -5 40 -26 33 -32 40 -46 40 -77 0 -29 -4 -38
-17 -38 -13 -1 -10 -5 10 -16 15 -8 27 -21 27 -29 0 -20 17 -19 28 1 7 13 9
10 8 -13 -1 -20 -5 -29 -13 -26 -16 6 -7 -79 13 -117 16 -32 50 -135 62 -186
6 -21 13 -47 17 -56 4 -11 3 -18 -3 -18 -6 0 -16 16 -23 35 -9 23 -16 32 -23
25 -7 -7 -6 -14 1 -21 15 -15 -4 -59 -25 -59 -7 0 -22 -10 -32 -22 -27 -34
-33 -19 -31 75 1 44 2 46 21 35 24 -15 39 -2 18 15 -24 18 -31 79 -14 113 9
16 13 39 9 54 -8 34 -23 49 -23 23 0 -12 -3 -29 -6 -37 -5 -12 -2 -15 12 -10
14 4 15 3 6 -4 -7 -5 -24 -7 -38 -4 -20 4 -24 0 -24 -21 0 -28 -32 -57 -64
-57 -11 0 -28 -7 -38 -17 -14 -12 -18 -13 -18 -3 0 11 -3 11 -12 2 -10 -10
-10 -15 2 -23 13 -8 13 -11 -1 -19 -12 -7 -18 -32 -24 -95 -6 -75 -9 -85 -26
-85 -10 0 -19 6 -19 14 0 7 -6 19 -14 25 -8 7 -18 26 -21 42 -5 20 -24 43 -61
70 -45 35 -60 41 -96 39 -113 -6 -122 -4 -142 43 -10 23 -23 58 -28 77 -24 93
-87 196 -135 221 -15 8 -33 20 -38 27 -6 7 -35 14 -65 16 -58 3 -136 -14 -123
-28 4 -4 -8 -6 -27 -4 -25 2 -34 7 -31 18 2 8 6 29 9 47 4 33 34 49 67 37 10
-4 21 -1 25 6 7 11 16 11 45 3 l36 -12 -6 54 c-4 31 -3 55 3 59 10 6 82 -134
82 -160 0 -8 10 -14 21 -14 20 0 20 2 7 23 -8 12 -25 51 -37 86 -12 36 -27 73
-33 84 -6 11 -12 48 -13 81 -4 62 -18 159 -34 231 -45 195 -49 208 -111 340
-21 44 -41 101 -44 127 -5 33 -18 60 -41 88 -41 49 -51 101 -35 185 6 33 15
84 21 114 10 56 56 160 84 191 12 13 16 41 17 114 2 79 5 99 20 113 10 9 18
20 18 25 0 5 11 24 24 41 14 18 32 46 40 62 15 29 16 29 22 8 6 -21 7 -21 40
12 19 19 34 38 34 43 0 5 17 31 38 58 20 27 42 57 47 66 24 39 100 146 127
176 15 18 28 39 28 47 0 8 4 15 10 15 5 0 32 33 60 74 27 41 58 81 67 88 10 7
25 26 33 41 8 16 27 38 42 49 15 10 28 25 28 33 0 7 11 22 24 33 14 10 62 68
107 128 45 60 103 129 128 152 117 111 138 134 149 166 26 70 76 146 95 142
25 -6 23 48 -3 81 -11 14 -20 34 -20 43 0 10 -9 20 -20 23 -21 6 -140 181
-140 208 0 9 -7 22 -15 29 -8 7 -15 16 -15 21 0 13 -44 79 -52 79 -4 0 -5 -7
-2 -15 7 -18 -10 -20 -24 -2 -5 6 -22 36 -37 65 l-27 52 -1757 -1 -1756 -1
-35 -24z m3665 -154 c3 -5 1 -10 -4 -10 -6 0 -11 5 -11 10 0 6 2 10 4 10 3 0
8 -4 11 -10z m-4880 -156 l50 -23 -36 -1 c-38 0 -125 41 -112 53 8 9 35 1 98
-29z m150 -24 c3 -5 16 -10 28 -10 12 0 42 -7 66 -15 33 -12 46 -13 57 -4 11
9 14 8 14 -6 0 -14 6 -16 30 -11 17 3 30 1 30 -4 0 -6 17 -11 38 -12 35 -1 36
-1 5 -5 -17 -2 -64 3 -105 12 -40 8 -100 20 -133 25 -33 6 -71 13 -85 17 l-25
6 30 7 c44 11 43 11 50 0z m-180 -410 c3 -5 1 -10 -4 -10 -6 0 -11 5 -11 10 0
6 2 10 4 10 3 0 8 -4 11 -10z m29 -35 c3 -8 1 -15 -4 -15 -6 0 -10 7 -10 15 0
8 2 15 4 15 2 0 6 -7 10 -15z m4798 -117 c-32 -34 -80 -89 -142 -162 -30 -35
-56 -63 -58 -62 -4 4 25 58 35 65 5 3 42 45 81 94 40 48 80 87 89 87 13 0 12
-4 -5 -22z m-2905 -55 c4 -10 17 -26 30 -36 13 -10 28 -28 35 -40 l11 -22 -24
20 c-53 44 -78 71 -79 83 0 18 20 15 27 -5z m2665 -212 c-12 -10 -22 -26 -22
-35 0 -9 -4 -16 -8 -16 -5 0 -49 -46 -97 -102 -49 -57 -117 -132 -151 -168
-35 -36 -72 -76 -83 -90 -11 -14 -20 -20 -21 -13 0 7 6 18 13 25 8 7 12 20 10
29 -3 10 14 38 42 69 56 63 57 91 5 101 -20 5 -40 3 -47 -3 -7 -6 -22 -8 -34
-5 -13 4 -30 -3 -46 -16 -13 -12 -33 -25 -44 -29 -16 -6 -19 -3 -19 27 0 31
34 85 55 85 4 0 30 23 57 50 58 58 91 80 81 54 -4 -11 -2 -15 4 -11 7 5 9 -1
5 -15 -5 -20 -3 -21 10 -11 29 24 142 -5 131 -33 -3 -8 0 -14 6 -14 6 0 11 12
12 28 0 24 1 25 9 7 7 -19 9 -18 19 8 6 15 14 27 19 27 8 0 23 11 81 60 13 12
26 18 29 15 3 -2 -5 -13 -16 -24z m-4142 -231 c0 -5 -5 -10 -11 -10 -5 0 -7 5
-4 10 3 6 8 10 11 10 2 0 4 -4 4 -10z m3761 -168 c-6 -11 -9 -27 -6 -34 3 -8
-3 -23 -13 -33 -10 -11 -21 -29 -26 -40 -6 -16 -9 -17 -16 -5 -6 9 -4 20 4 30
15 17 29 49 31 66 0 14 26 46 32 40 3 -2 0 -13 -6 -24z m-3634 -114 c-3 -8 -6
-5 -6 6 -1 11 2 17 5 13 3 -3 4 -12 1 -19z m-732 -178 c3 -11 3 -25 -1 -31 -4
-8 -3 -9 4 -5 7 4 12 3 12 -3 0 -5 3 -16 6 -25 10 -27 -11 -18 -29 13 -18 31
-23 71 -8 71 5 0 12 -9 16 -20z m1057 -12 c-7 -7 -12 -8 -12 -2 0 14 12 26 19
19 2 -3 -1 -11 -7 -17z m388 -93 c-7 -8 -14 -15 -15 -15 -2 0 -5 7 -9 15 -4
10 1 15 16 15 17 0 18 -2 8 -15z m111 -65 c5 0 9 -7 9 -16 0 -13 -2 -13 -13
-2 -17 16 -30 81 -20 92 5 4 9 -11 11 -33 2 -23 7 -41 13 -41z m-1484 54 c-3
-3 -12 -4 -19 -1 -8 3 -5 6 6 6 11 1 17 -2 13 -5z m-52 -14 c3 -5 1 -10 -4
-10 -6 0 -11 5 -11 10 0 6 2 10 4 10 3 0 8 -4 11 -10z m1452 -76 c-3 -3 -12
-4 -19 -1 -8 3 -5 6 6 6 11 1 17 -2 13 -5z m2366 -384 c3 -11 3 -20 1 -20 -2
0 -8 9 -14 20 -6 11 -7 20 -2 20 6 0 12 -9 15 -20z m-3608 -90 c3 -5 1 -10 -4
-10 -6 0 -11 5 -11 10 0 6 2 10 4 10 3 0 8 -4 11 -10z m4805 -598 c0 -13 -12
-22 -22 -16 -10 6 -1 24 13 24 5 0 9 -4 9 -8z m-100 -132 c0 -5 -7 -7 -15 -4
-8 4 -15 8 -15 10 0 2 7 4 15 4 8 0 15 -4 15 -10z m-946 -236 c17 -16 21 -34
8 -34 -16 0 -52 32 -47 41 9 13 21 11 39 -7z m932 -71 c-10 -10 -19 5 -10 18
6 11 8 11 12 0 2 -7 1 -15 -2 -18z m-1346 -103 c8 -5 11 -12 8 -16 -10 -9 -38
3 -38 16 0 12 10 13 30 0z m293 -11 c-12 -12 -102 -26 -91 -14 7 7 60 22 88
24 10 1 11 -2 3 -10z m-83 -58 c0 -5 -7 -11 -15 -15 -15 -5 -20 5 -8 17 9 10
23 9 23 -2z m50 -16 c0 -17 -35 -55 -50 -55 -16 0 -12 14 15 43 29 31 35 33
35 12z m1290 -59 c0 -3 -4 -8 -10 -11 -5 -3 -10 -1 -10 4 0 6 5 11 10 11 6 0
10 -2 10 -4z m-965 -26 c-3 -5 -14 -10 -23 -9 -14 0 -13 2 3 9 27 11 27 11 20
0z m-1160 -190 c3 -5 -1 -10 -9 -10 -9 0 -16 5 -16 10 0 6 4 10 9 10 6 0 13
-4 16 -10z m1699 -176 c9 -3 16 -11 16 -16 0 -7 -4 -7 -12 0 -7 5 -24 12 -38
15 -22 4 -22 4 -3 6 12 0 28 -2 37 -5z m76 -65 c0 -11 -3 -11 -24 -3 -23 9
-20 23 4 17 11 -3 20 -9 20 -14z m496 -96 c-11 -11 -26 10 -26 35 l0 27 15
-29 c9 -16 13 -31 11 -33z m-346 -43 c0 -33 -3 -40 -20 -40 -17 0 -20 7 -20
40 0 33 3 40 20 40 17 0 20 -7 20 -40z m162 -34 c6 4 6 -2 -1 -15 -18 -32 -21
-26 -19 37 1 50 2 52 5 14 3 -26 8 -40 15 -36z m192 39 c3 -8 1 -15 -4 -15 -6
0 -10 7 -10 15 0 8 2 15 4 15 2 0 6 -7 10 -15z m-434 -55 c0 -5 -4 -10 -10
-10 -5 0 -10 5 -10 10 0 6 5 10 10 10 6 0 10 -4 10 -10z m-1036 -58 c-16 -23
-19 -24 -22 -9 -2 10 4 30 14 45 16 23 19 24 22 9 2 -10 -4 -30 -14 -45z m976
-12 c0 -11 -4 -20 -10 -20 -5 0 -10 9 -10 20 0 11 5 20 10 20 6 0 10 -9 10
-20z m277 -57 c-2 -16 -4 -3 -4 27 0 30 2 43 4 28 2 -16 2 -40 0 -55z m-297
17 c0 -5 -2 -10 -4 -10 -3 0 -8 5 -11 10 -3 6 -1 10 4 10 6 0 11 -4 11 -10z
m-3175 -310 c-3 -5 -12 -10 -18 -10 -7 0 -6 4 3 10 19 12 23 12 15 0z m-66
-42 c-1 -7 -5 -24 -9 -38 -7 -23 -8 -23 -9 -3 -1 12 -4 28 -7 37 -4 11 -1 16
10 16 9 0 16 -6 15 -12z m-109 -30 c0 -5 -4 -8 -10 -8 -5 0 -10 10 -10 23 0
18 2 19 10 7 5 -8 10 -18 10 -22z m80 -37 c0 -4 -11 -20 -25 -35 -22 -24 -26
-25 -32 -10 -4 11 2 23 18 35 26 20 39 24 39 10z m-23 -101 c-26 -16 -58 -30
-70 -29 -21 0 -21 1 -2 8 11 5 29 18 39 30 12 13 31 21 50 21 30 0 29 0 -17
-30z m-200 -182 c-3 -8 -6 -5 -6 6 -1 11 2 17 5 13 3 -3 4 -12 1 -19z m2703
-358 c0 -4 -6 -10 -13 -13 -8 -3 -18 6 -24 24 -11 28 -11 28 13 12 13 -8 24
-19 24 -23z m10 -60 c0 -13 -1 -13 -10 0 -5 8 -10 22 -10 30 0 13 1 13 10 0 5
-8 10 -22 10 -30z m-3374 -416 c-21 -19 -40 -33 -42 -31 -6 6 58 67 70 67 6 0
-6 -16 -28 -36z m3284 -484 c0 -5 -2 -10 -4 -10 -3 0 -8 5 -11 10 -3 6 -1 10
4 10 6 0 11 -4 11 -10z m116 -70 c17 0 44 -39 44 -63 0 -13 -4 -16 -15 -10
-29 17 -65 77 -64 107 l1 31 10 -32 c6 -18 17 -33 24 -33z m-52 25 c-7 -16
-24 -21 -24 -6 0 8 7 13 27 20 1 1 0 -6 -3 -14z m206 -55 c0 -10 7 -34 15 -54
8 -20 22 -66 31 -104 9 -37 18 -76 21 -87 3 -11 7 -33 10 -50 4 -28 4 -29 -9
-9 -7 12 -28 49 -45 82 -18 34 -46 77 -63 95 -23 27 -30 46 -32 83 -3 42 0 49
21 60 29 15 51 8 51 -16z m-218 -36 c43 -17 68 -39 68 -58 0 -6 -6 -4 -13 5
-7 9 -17 14 -24 12 -6 -2 -14 1 -18 6 -3 6 -11 11 -16 11 -6 0 -7 -4 -4 -10
11 -18 -14 -11 -35 10 -21 21 -26 40 -10 40 5 0 29 -7 52 -16z m294 -61 l3
-58 -13 50 c-18 66 -20 93 -4 77 6 -6 13 -37 14 -69z m11 -110 c-3 -10 -5 -2
-5 17 0 19 2 27 5 18 2 -10 2 -26 0 -35z m71 -231 c5 -40 5 -75 0 -78 -4 -3
-9 -2 -9 3 -1 4 -3 19 -5 33 -2 14 -6 40 -10 57 -6 31 1 71 11 62 2 -3 8 -37
13 -77z m-4648 -377 c0 -8 -4 -15 -10 -15 -5 0 -7 7 -4 15 4 8 8 15 10 15 2 0
4 -7 4 -15z m-57 -80 c-3 -9 -8 -14 -10 -11 -3 3 -2 9 2 15 9 16 15 13 8 -4z
m577 -90 c-7 -9 -15 -13 -19 -10 -3 3 1 10 9 15 21 14 24 12 10 -5z m4191
-280 c-4 -49 -6 -189 -5 -310 1 -183 0 -201 -7 -105 -12 198 -12 466 1 490 6
12 13 20 14 18 2 -1 0 -43 -3 -93z m-60 -488 c1 -264 -4 -339 -15 -215 -22
245 -23 282 -15 359 11 95 18 133 24 127 2 -2 5 -124 6 -271z m65 -172 c5 -23
4 -27 -6 -19 -6 7 -13 40 -15 75 -4 60 -3 61 5 19 5 -25 12 -58 16 -75z m5
-330 c6 15 8 11 8 -18 1 -23 -3 -36 -9 -32 -6 4 -10 -9 -11 -32 0 -29 -2 -33
-8 -18 -5 11 -7 38 -6 60 4 55 6 63 13 40 l5 -20 8 20z"/>
<path d="M8781 8230 c-21 -18 -21 -20 -5 -20 11 0 25 9 32 20 15 25 4 25 -27
0z"/>
<path d="M3888 8853 c7 -3 16 -2 19 1 4 3 -2 6 -13 5 -11 0 -14 -3 -6 -6z"/>
<path d="M5542 7501 c2 -7 7 -12 11 -12 12 1 9 15 -3 20 -7 2 -11 -2 -8 -8z"/>
<path d="M4785 7233 c-27 -2 -58 -11 -67 -20 -18 -16 -25 -53 -10 -53 4 0 27
-18 50 -40 46 -45 52 -46 112 -25 23 8 46 13 50 10 4 -3 13 2 20 10 8 9 21 13
35 9 28 -7 42 11 19 24 -23 13 -11 42 18 42 45 1 -13 24 -77 31 -33 4 -69 9
-80 11 -11 3 -42 3 -70 1z"/>
<path d="M4903 7073 c-26 -5 -31 -23 -8 -23 21 0 19 -9 -7 -31 -14 -13 -29
-17 -42 -13 -24 8 -78 43 -88 58 -4 6 -11 7 -15 2 -4 -5 -2 -11 5 -13 7 -3 12
-23 12 -52 0 -47 -1 -48 -27 -44 -27 4 -26 3 7 -16 19 -11 45 -20 58 -21 12 0
34 -7 47 -16 16 -11 34 -14 55 -9 23 5 30 3 30 -9 0 -28 39 -14 86 32 16 15
35 22 61 22 21 0 45 5 53 11 11 7 -5 9 -57 7 -66 -3 -72 -2 -67 14 5 16 -1 18
-41 18 -38 0 -46 3 -43 16 3 18 17 27 62 40 16 5 30 14 30 19 1 11 -73 16
-111 8z m84 -119 c-3 -3 -12 -4 -19 -1 -8 3 -5 6 6 6 11 1 17 -2 13 -5z"/>
<path d="M8785 6870 c3 -5 8 -10 11 -10 2 0 4 5 4 10 0 6 -5 10 -11 10 -5 0
-7 -4 -4 -10z"/>
<path d="M4316 6471 c-14 -22 -26 -43 -26 -46 0 -10 37 30 49 53 22 41 4 36
-23 -7z"/>
<path d="M6370 6414 c0 -12 37 -54 47 -54 4 0 -4 12 -18 28 -13 15 -25 29 -26
31 -2 2 -3 0 -3 -5z"/>
<path d="M6580 6372 c-8 -3 -28 -14 -43 -25 -24 -17 -32 -18 -52 -7 -13 7 -29
10 -37 8 -8 -3 0 -11 20 -22 37 -19 39 -24 15 -42 -10 -7 -15 -16 -10 -20 4
-4 24 9 45 29 21 20 45 37 55 37 9 0 31 9 49 21 18 12 25 18 14 15 -10 -4 -24
-2 -30 2 -6 5 -18 7 -26 4z"/>
<path d="M4240 6326 c0 -14 11 -36 23 -50 26 -28 126 -78 139 -70 17 10 144
-41 169 -68 22 -24 29 -23 29 7 0 19 -8 29 -32 40 -43 18 -163 55 -181 55 -31
0 -105 51 -117 80 -15 36 -30 39 -30 6z"/>
<path d="M4600 6012 c0 -33 -2 -81 -5 -108 -5 -49 -5 -49 9 11 17 71 20 141 6
150 -6 4 -10 -16 -10 -53z"/>
<path d="M9260 5991 c0 -6 5 -13 10 -16 6 -3 10 1 10 9 0 9 -4 16 -10 16 -5 0
-10 -4 -10 -9z"/>
<path d="M6280 5831 c-27 -19 0 -24 140 -29 100 -3 140 -1 140 7 0 7 -24 12
-62 13 -68 1 -89 3 -158 13 -25 3 -52 1 -60 -4z"/>
<path d="M4602 5821 c5 -13 90 -82 95 -77 9 9 -30 56 -60 71 -35 17 -40 18
-35 6z"/>
<path d="M6183 5823 c15 -2 37 -2 50 0 12 2 0 4 -28 4 -27 0 -38 -2 -22 -4z"/>
<path d="M6493 5783 c9 -2 23 -2 30 0 6 3 -1 5 -18 5 -16 0 -22 -2 -12 -5z"/>
<path d="M4689 5693 c-14 -36 -6 -151 12 -185 8 -14 23 -41 33 -59 19 -34 20
-57 12 -209 -7 -131 70 -187 243 -177 67 4 116 15 224 51 75 25 143 46 150 46
20 0 113 48 95 49 -10 1 -52 -10 -94 -24 -45 -15 -100 -25 -133 -25 -31 0 -61
-4 -66 -9 -10 -9 -125 -26 -251 -38 -49 -4 -68 -2 -103 16 -23 12 -45 29 -48
38 -4 9 -2 67 5 129 12 125 6 159 -42 233 -29 45 -31 70 -12 158 7 34 -12 38
-25 6z m258 -609 c-3 -3 -12 -4 -19 -1 -8 3 -5 6 6 6 11 1 17 -2 13 -5z"/>
<path d="M9362 5650 c0 -14 2 -19 5 -12 2 6 2 18 0 25 -3 6 -5 1 -5 -13z"/>
<path d="M6800 5490 c-14 -5 -52 -17 -85 -26 -33 -9 -71 -26 -85 -37 l-25 -19
35 6 c36 7 48 11 113 40 21 9 47 16 57 16 11 0 20 7 20 15 0 8 -1 15 -2 14 -2
-1 -14 -5 -28 -9z"/>
<path d="M7130 5409 c0 -5 5 -7 10 -4 6 3 10 8 10 11 0 2 -4 4 -10 4 -5 0 -10
-5 -10 -11z"/>
<path d="M9441 5394 c0 -11 3 -14 6 -6 3 7 2 16 -1 19 -3 4 -6 -2 -5 -13z"/>
<path d="M5560 5290 c0 -5 5 -10 11 -10 5 0 7 5 4 10 -3 6 -8 10 -11 10 -2 0
-4 -4 -4 -10z"/>
<path d="M5598 5174 c-3 -5 -2 -20 2 -34 4 -18 8 -21 12 -10 6 17 -6 58 -14
44z"/>
<path d="M5376 4974 c-6 -24 -2 -43 8 -33 11 10 17 59 8 59 -5 0 -13 -12 -16
-26z"/>
<path d="M5346 4895 c-9 -21 -16 -46 -16 -56 0 -11 -4 -19 -10 -19 -5 0 -10
-6 -10 -14 0 -9 7 -12 19 -9 20 5 38 33 21 33 -6 0 -10 9 -10 20 0 11 5 20 10
20 6 0 9 3 8 8 0 4 2 15 7 25 4 10 5 20 2 24 -3 3 -13 -12 -21 -32z"/>
<path d="M5192 4738 c-17 -11 -32 -21 -32 -23 0 -7 36 7 54 21 31 22 14 25
-22 2z"/>
<path d="M5369 4689 c-1 -2 -4 -38 -7 -79 -9 -109 -5 -206 8 -227 10 -16 11
-16 6 -1 -6 19 10 35 16 16 2 -6 3 13 1 43 -2 30 -5 95 -6 146 -2 51 -6 96
-10 99 -4 4 -7 5 -8 3z"/>
<path d="M5408 4669 c-8 -22 2 -140 13 -162 6 -9 7 -22 4 -27 -3 -6 -1 -10 4
-10 6 0 11 -6 11 -14 0 -7 7 -20 16 -27 15 -12 16 -11 11 6 -3 11 -9 32 -13
48 -3 15 -11 27 -16 27 -6 0 -8 11 -6 25 3 13 1 22 -4 19 -5 -3 -6 12 -3 33 6
43 -7 108 -17 82z"/>
<path d="M5512 4583 c-6 -2 -10 -9 -7 -13 7 -11 35 -2 35 11 0 10 -8 10 -28 2z"/>
<path d="M5456 4547 c3 -10 9 -15 12 -12 3 3 0 11 -7 18 -10 9 -11 8 -5 -6z"/>
<path d="M5000 4350 c0 -5 5 -10 10 -10 6 0 10 5 10 10 0 6 -4 10 -10 10 -5 0
-10 -4 -10 -10z"/>
<path d="M5405 4325 c7 -33 12 -41 20 -33 3 3 -2 18 -11 34 l-16 29 7 -30z"/>
<path d="M5326 4295 c-3 -8 -1 -15 4 -15 6 0 10 7 10 15 0 8 -2 15 -4 15 -2 0
-6 -7 -10 -15z"/>
<path d="M5311 4242 c-7 -13 -6 -32 4 -63 l14 -44 -1 63 c-1 34 -2 62 -4 62
-2 0 -8 -8 -13 -18z"/>
<path d="M4635 4160 l-30 -8 33 -1 c17 0 32 4 32 9 0 6 -1 9 -2 9 -2 -1 -16
-5 -33 -9z"/>
<path d="M4220 4091 c0 -5 7 -12 16 -15 24 -9 28 -7 14 9 -14 17 -30 20 -30 6z"/>
<path d="M5215 4061 c-3 -5 -1 -12 5 -16 5 -3 10 1 10 9 0 18 -6 21 -15 7z"/>
<path d="M4172 4036 c1 -10 8 -17 13 -17 15 1 12 24 -3 29 -9 3 -13 -2 -10
-12z"/>
<path d="M4837 3975 c-15 -19 -24 -35 -20 -35 10 1 43 29 62 53 11 14 11 17 0
17 -8 0 -27 -16 -42 -35z"/>
<path d="M5148 3957 c-15 -12 -26 -30 -24 -39 4 -28 14 -31 21 -7 4 12 19 33
33 46 32 30 7 30 -30 0z"/>
<path d="M5095 3960 c-3 -6 1 -7 9 -4 18 7 21 14 7 14 -6 0 -13 -4 -16 -10z"/>
<path d="M4708 3913 c7 -3 16 -2 19 1 4 3 -2 6 -13 5 -11 0 -14 -3 -6 -6z"/>
<path d="M4782 3908 c-9 -9 -7 -17 10 -35 21 -23 72 -32 82 -14 3 5 -10 9 -29
8 -44 -1 -64 15 -45 38 15 18 0 21 -18 3z"/>
<path d="M4618 3893 c7 -3 16 -2 19 1 4 3 -2 6 -13 5 -11 0 -14 -3 -6 -6z"/>
<path d="M4151 3504 c0 -11 3 -14 6 -6 3 7 2 16 -1 19 -3 4 -6 -2 -5 -13z"/>
<path d="M4152 3430 c0 -14 2 -19 5 -12 2 6 2 18 0 25 -3 6 -5 1 -5 -13z"/>
<path d="M4170 3206 c0 -14 5 -28 10 -31 6 -3 10 5 10 19 0 14 -4 28 -10 31
-6 3 -10 -5 -10 -19z"/>
<path d="M4095 3039 c-4 -6 -5 -12 -2 -15 2 -3 7 2 10 11 7 17 1 20 -8 4z"/>
<path d="M3631 1808 c0 -9 -4 -25 -7 -35 -5 -17 -5 -17 6 0 6 10 9 25 7 35 -4
15 -5 15 -6 0z"/>
</g>
</svg>
